<?xml version="1.0" encoding="UTF-8"?>
<svg id="Layer_1" xmlns="http://www.w3.org/2000/svg" version="1.1" viewBox="0 0 595.28 841.89">
  <!-- Generator: Adobe Illustrator 29.6.1, SVG Export Plug-In . SVG Version: 2.1.1 Build 9)  -->
  <defs>
    <style>
      .st0 {
        fill: none;
        stroke: #231f20;
        stroke-miterlimit: 10;
      }
    </style>
  </defs>
  <polygon class="st0" points="130.25 387.4 130.25 364.82 130.25 338.96 166.69 347.62 166.69 323.84 148.47 318.96 148.47 341.62 147.33 341.37 147.33 318.96 131.91 315.87 131.91 338.12 130.25 337.54 130.25 291.43 160.41 285.23 187.55 279.65 187.55 259.82 207.24 255.96 218.22 253.82 237.55 256.48 222.26 259.64 206.88 262.82 188.25 260.43 188.25 282.43 206.3 286.87 206.3 263.71 207.47 263.59 207.47 287.26 223.35 283.48 235.69 280.54 235.69 257.43 237.55 257.15 237.55 281.09 244.88 282.43 244.88 268.65 263.27 264.65 275.55 261.98 295.77 265.32 281.2 269 265.44 272.98 245.25 268.98 245.25 294.01 264.97 297.34 264.88 273.76 265.97 273.59 265.97 297.51 281.14 293.54 294 290.18 294 266.68 295.77 266.34 295.77 289.59 304.41 291.01 281.36 296.89 256.65 303.19 228.36 310.4 190.52 303.25 152.39 296.04 131.97 292.18 130.75 292.96 151.98 297.02 189.55 304.21 228.16 311.59 228.16 336.37 187.5 327.71 186.83 351.26 207.38 357.04 207.38 332.48 209.05 332.93 209.05 357.26 226.61 361.48 226.61 336.82 228.11 336.86 227.38 361.64 227.38 385.64 227.38 409.75 300.5 387.02 301.53 361.96 302.53 337.88 303.64 310.84 304.41 292.16 305.41 291.83 304.5 308.16 303.58 324.58 317.91 327.25 310.55 339.96 302.52 353.8 302.52 355.3 310.91 340.89 318.52 327.8 325.77 340.14 348.73 375.21 370.55 408.54 397.79 450.16 412 471.86 433.86 456.3 455.55 440.86 465.99 405.03 474.51 375.78 484.61 341.12 493.55 310.41 510.66 314.41 502.25 342.13 491.95 376.11 482.49 407.29 470.88 445.52 440.96 468.37 421.94 482.89 413.11 471.72 412 472.66 428 493.77 453.36 475.73 476.73 459.11 491.23 409.82 500.49 378.34 509.96 346.17 517.51 320.5 511.18 315 511.38 314.41 518.08 320.18 510.48 346.16 501.03 378.46 491.82 409.94 477.4 459.24 453.63 476.35 428.35 494.54 440.3 513.63 430.74 540.13 401.76 555.51 368.44 573.2 330.5 593.34 297.64 610.79 300.08 566.13 315.98 558.28 334.38 549.21 354.93 539.08 373.08 530.13 373.46 568.79 374.96 567.96 374.13 528.46 368.46 531.29 355.67 515.42 341.54 497.9 322 473.67 305.3 452.96 307.3 434.79 275.13 438.08 287.13 415.56 299.51 392.32 314.88 363.47 326.13 342.36 325.59 341.49 314.16 362.67 298.85 391.04 283.92 418.71 274.4 405.82 282.78 393.15 281.67 393.38 273.51 405.6 258.06 400.93 257.12 401.32 272.95 406.32 263.1 424.71 251.76 445.9 271.42 468.57 274.59 439.4 277.26 439.24 274.71 460.94 271.62 487.25 268.34 515.15 265.25 541.53 262.19 567.54 258.62 597.98 254.76 630.9 269.9 623.65 282.26 617.74 284.32 602.3 288.58 570.33 292.21 543.12 295.51 518.42 297.64 502.49 314.97 524.96 333.23 548.65 294.06 535.65 296.23 537.32 293.4 540.49 291.9 552.99 290.4 563.32 299.06 566.15 299.15 567.15 290.15 563.99 285.03 604.88 296.48 608.65 296.59 610.88 284.7 606.54 283.03 617.65 270.17 624.01 254.26 631.88 236.14 625.83 216.98 619.43 220.67 589.63 224.35 559.98 227.38 535.5 231.13 505.27 233.99 482.16 236.8 459.51 255.12 465.3 271.63 470.51 270.74 469.29 250.96 445.4 235.32 441.02 219.55 436.6 202.9 431.93 188.38 427.86 177.24 424.74 196.24 447.74 212.31 452.56 229.58 457.74 235.24 464.74 235.3 465.74 229.13 458.24 226.26 480.64 223.25 504.2 219.27 535.29 216.2 559.29 212.41 588.88 208.96 615.79 216.74 612.57 216.52 613.35 208.52 616.9 191.32 610.18 174.41 603.57 176.96 581.89 180.23 554.05 183.39 527.2 187.04 496.17 189.77 473.04 193.08 444.9 175.74 424.01 184.74 410.18 188.96 412.13 204.3 405.79 226.3 411.13 225.85 409.9 206.3 405.35 206.3 382.9 206.3 358.24 205.19 357.68 205.19 383.68 205.19 405.01 189.19 411.01 189.19 384.9 189.19 361.9 204.74 357.63 204.35 357.18 172.4 349.72 147.7 343.96 131.37 347.85 150.81 353.18 149.81 376.96 169.7 382.51 170.48 358.18 151.58 353.54 151.62 352.92 188.58 361.79 188.49 384.49 188.38 410.93 169.79 406.29 147.83 400.82 130.25 396.43 130.25 387.4"/>
</svg>