<?xml version="1.0" encoding="UTF-8"?>
<svg id="Layer_1" xmlns="http://www.w3.org/2000/svg" version="1.1" viewBox="0 0 595.28 841.89">
  <!-- Generator: Adobe Illustrator 29.6.1, SVG Export Plug-In . SVG Version: 2.1.1 Build 9)  -->
  <defs>
    <style>
      .st0 {
        fill: none;
        stroke: #231f20;
        stroke-miterlimit: 10;
      }
    </style>
  </defs>
  <polygon class="st0" points="45.01 179.48 106.36 179.48 167.03 179.48 227.69 179.48 290.97 179.48 351.69 179.48 414.36 179.48 476.36 179.48 536.93 179.48 536.93 240.7 536.93 304.03 536.93 364.03 536.93 425.43 536.93 487.36 536.93 550.03 536.93 609.36 536.93 671.39 476.36 671.39 415.03 671.39 415.03 610.7 415.03 548.7 415.03 485.36 352.36 485.36 352.36 425.43 413.69 425.43 474.36 425.43 474.36 364.03 474.36 304.03 415.03 304.03 351.69 304.03 351.69 363.36 351.69 418.03 290.97 418.03 227.69 418.03 227.69 362.7 227.69 301.36 167.03 301.36 106.36 301.36 106.36 363.36 106.36 425.43 165.69 425.43 229.69 425.43 229.69 488.03 167.03 488.03 167.03 546.03 167.03 610.03 167.03 662.03 227.69 662.03 227.69 609.36 290.97 609.36 351.69 609.36 351.69 664.03 409.69 664.03 409.69 671.39 290.97 671.39 227.03 671.39 168.36 671.39 107.03 671.39 45.01 671.39 45.01 610.7 45.01 548.7 45.01 488.7 45.01 425.43 45.01 365.36 45.01 302.7 45.01 240.7 45.01 179.48"/>
</svg>