<?xml version="1.0" encoding="UTF-8"?>
<svg id="Layer_1" xmlns="http://www.w3.org/2000/svg" version="1.1" viewBox="0 0 595.28 841.89">
  <!-- Generator: Adobe Illustrator 29.6.1, SVG Export Plug-In . SVG Version: 2.1.1 Build 9)  -->
  <defs>
    <style>
      .st0 {
        fill: none;
        stroke: #231f20;
        stroke-miterlimit: 10;
      }
    </style>
  </defs>
  <polyline class="st0" points="37.28 392.8 48.83 367.91 59.05 346.13 71.49 319.91 82.61 296.35 93.49 271.24 104.16 247.58 113.16 244.58 124 221.39 135.83 196.07 161.2 207.9 184.83 218.91 172.74 244.1 161.16 268.24 183.2 278.95 208.49 291.24 219.44 268.11 232.16 241.24 260.05 255.76 280.83 266.58 270.59 287.21 260.16 308.24 251.83 318.58 228.64 307.36 201.3 294.13 180.29 283.96 157.37 272.87 133.64 261.39 107.16 248.58 84.49 297.91 105.83 309.24 117.49 283.58 140.49 294.43 129.49 320.08 119.16 342.74 94.99 332.24 104.66 312.08 126.33 322.74 127.99 319.58 107.49 310.58 83.16 298.41 72.33 321.24 93.66 332.74 105.99 338.13 178.11 373.13 166.33 366.47 188.33 318.13 213.44 330.58 201.11 354.35 178.44 343.69 177.55 344.8 199.36 354.84 188.17 377.45 189.7 378.19 200.71 355.74 225.11 366.69 213.88 390.47 179.99 374.47 162.75 409.51 145.77 444.02 179.99 462.47 197.06 426.15 247.77 318.24 250.88 320.47 236.2 354.78 222.53 386.73 205.13 427.4 193.55 454.47 184.44 457.13 181.77 462.47 191.77 458.24 195.77 454.24 211.99 462.47 220.59 426.97 229.55 390.01 237.99 355.13 255.99 316.69 265.77 321.13 294.59 318.36 338.6 314.14 369.88 311.13 342.14 296.85 312.65 281.67 281.1 265.43 250.53 249.69 223.55 235.8 176.88 241.47 177.88 238.8 223.55 232.8 252.49 247.65 283.13 263.37 315.22 279.85 344.53 294.89 374.88 310.47 366.22 349.13 386.22 364.13 419.97 343.69 449.29 325.93 478.95 307.98 517.22 284.8 554.55 303.47 556.41 327.66 557.99 348.13 521.81 370.63 490.44 390.15 454.55 412.47 418.88 386.8 448.5 368.85 478.52 350.66 510.84 331.08 552.55 305.8 549.55 304.13 509.66 328.85 477.3 348.9 446.93 367.72 417.22 386.13 388.88 364.8 385.55 366.47 411.32 384.54 435.84 401.74 463.22 420.94 446.68 450.5 431.47 477.67 416.29 504.8 399.74 534.37 385.88 559.13 355.15 536.75 323.46 513.68 290.22 489.47 333.22 484.13 340.01 454.21 347.79 419.94 356.23 382.76 363.78 349.51 371.88 313.8 338.23 317.07 293.53 321.41 265.55 324.13 257.77 356.43 248.83 393.58 240.25 429.21 232.84 460 224.22 495.8 273.88 490.47 310.22 509.13 345.67 536.56 384.67 559.73 343.88 538.47 314.01 553.97 260.84 581.58 213.55 606.13 206.88 603.8 215.54 578.78 224.88 551.8 268.88 530.59 308.55 511.47 272.77 491.38 243.27 504.97 246.02 494.91 244.8 494.58 233.66 527.93 223.16 559.36 209.92 598.98 197.74 635.42 163.08 630.47 176.92 591.8 191.43 551.26 202.87 519.3 213.08 490.8 222.41 495.13 223.16 493.13 174.02 469.05 163.06 502.02 150.48 539.83 137.51 578.84 126.69 611.38 162.02 629.3 161.61 630.88 124.27 611.91 126.91 604.16 108.24 603.83 119.59 570.66 136.11 522.37 146.54 491.85 156.24 463.49 171.13 471.38 172.02 468.83 118.63 442.33 109.1 470.47 94.43 513.81 81.58 551.75 71.08 582.77 107.08 600.77 105.97 604.1 66.41 583.66 78.11 550.09 91.2 512.51 106.23 469.38 115.97 441.44 133.52 447.88 143.74 444.99 142.86 442.77 133.52 446.1 142.07 427.63 150.76 432.05 152.1 429.66 143.55 424.84 154.56 402.67 167.3 376.99 177.52 375.44 176.86 373.6 164.74 376.55 142.08 364.72 130.74 388.38 106.97 375.88 118.97 352.22 97.3 342.88 105.72 338.88 103.67 337.92 95.34 342.22 83.26 368.45 73.29 390.12 94.73 400.74 117.37 411.95 142.4 424.34 141.06 426.79 116.62 414.6 92.74 402.7 72.4 392.56 62.4 414.12 113.95 440.79 112.84 442.34 59.73 413.9 63.73 405.01 37.28 392.8"/>
</svg>