<?xml version="1.0" encoding="UTF-8"?>
<svg id="Layer_1" xmlns="http://www.w3.org/2000/svg" version="1.1" viewBox="0 0 595.28 841.89">
  <!-- Generator: Adobe Illustrator 29.6.1, SVG Export Plug-In . SVG Version: 2.1.1 Build 9)  -->
  <defs>
    <style>
      .st0 {
        fill: none;
        stroke: #231f20;
        stroke-miterlimit: 10;
      }
    </style>
  </defs>
  <path class="st0" d="M48.85,675.79v-75.76l44.83-34.95,46.67-26.22,2.51-12.6,20.89-16.44,24-33.78,13.33,2.22,5.33-15.11-7.56,10.22-15.56-12.89,15.56-20-6.22-17.78,1.33-16-6.22-5.78-.89,10.67,3.11,19.56,2.22,3.11-9.33-15.11,1.33-27.11,18.22,4.44s-.44-23.11-2.22-24.89-20-7.56-20-7.56l-17.33,22.22,6.67,32.89,11.56,23.89-.44,12.56,5.78,13.33-20.44,1.33-32.44-24s-24.44-29.33-24.44-33.33-.89-65.78-.89-65.78l35.11-77.78s11.56-41.78,12.89-44.44,45.33-40.89,45.33-40.89l48-5.81,48.11,13.36,26.56,9.78,26.67-1.33,19.11,2.22,26.22.89,5.78,17.78,19.56,13.78v19.11l18.67,24.44,12,23.56,8,28.89,14.67,22.22-10.22,16.44,2.67,38.22-5.33,27.11,5.78,32-16.44,7.56-31.11-7.56,1.33-23.67-15.11-7,5.78-36.89.44-42.67-3.56-35.56-6.67-30.67-25.33-23.56-32-7.56-55.4,4.44-42.82,4.89-17.78,16.44-1.78,44,8.44,20.44-10.67,9.78-10.67,30.22-4,13.78-6.31-9.39-1.69,33.26,8,43.27,5.78,35.11,50.67,45.78,37.78,4,43.11-1.78,28-23.11,18.67-28-25.53-7.11-10.33,3.83-12.83,7.5-25.64,1.2-10.67-7-13.78-1.86,4.92-6,19,1.33,18.67,1.67,12.08-1,9.78-2.89,11.29,1.43,2.18-9.82-3-9.5-10.04-15.95-15.74,2.95-23.56-.11-16.69-4.65-11.34,4.1-9.56,7.56-9.11,8.44-1.56,14.67,8.89,6,11.56,1.33-.03,1.36-11.58-1.42-10-6.42,1.67-15.75,29.06-36.81,17.56-18.44,3.97-33.08-12.67-6.44-5.11,7.11-8.64,4.67-18.25.89-10.89-8v-12.67l10.44-10.44,18.69-1.11,7.53,6,4.89,8.67-2.67,4.67-9.75-7.11-7.95-2-9.85.89-7.78,6.44-2.44,4.67,7.72,6.28,17.83.83,7.83-4.33-.67-6.5-10.33-4.67.67,5.33-2.98,6.5-8.68-.17-6-3.5.33-5.67,5.5-4,8-1.17,8.8,2,9.53,7.67,3.67-6,4.67,1.5s1.5-11.83.5-12.17-15-12-15-12l-17.17-.67-12.67,1-6.67-9.67,14.67-6.33,17-.33,14.33,6.33,2.33,9,5.33,7.67,1,5.33,6.67,6.67,10.33-.67,8,1,8.67,4.67,5.33-11.67,7-9.67,6-7.33,20.67,4.67.67,9-3.67,5-5.33-.33-13.67-1.33-5.67,3.83-7.83,6.17-2.5,4.17,14-11.17,9.67-.83,11.67,2,5.33,7.67.17,7.67-.17,6.67-4.33-5.17s-.83-7-1.83-7.33-11.17-4.83-11.83-4.83-12,.17-12,.17c0,0-4.5,4.83-5,5.17s-4.67,3.33-4.67,3.33l10.33,7.33,16,2.33,6.17-4.5v-2.83l-6.17,3.67-13.67-1.33-8.17-3.67-.44-3.03,4.39-4.28-.67,4.28,2.61,3.78,5.17,2.28,6.22-.67,2.72-3.94.11-4.5,3.5,2.11,4.11,2.83,1.78,5.22-7.5,5.33-16.5-1.83-11.33-8-2.83,10,5.5,18.17,8.67,19-2,15,3.67,1.33-1.67,3.67-7.67,5.67-1.31-4.58,5.67-5.83-8.5,8.5-6.83,1.33-13.17-1.67-3.33-4.33s-6.72,3-7.39,3.11-7.56.11-7.56.11l-3-6.44-1-9.44,4.67-8.89,5.89-.56,4,9.22-4-10.77-6.22.97-5.33,9.78,1.11,9.78,3.11,6.78,8.67.22,6.44-2.89,3.44,4,13.22,1.67,7.56-1.22,2.04-2.46,1.46,4.29,8.29-5.71,2.17-4.5-3.88-1.42,1.85-14.49,10.5,22.39,18.56,19.83,6.83,2.39,4-19.83v-20.5l.83.65-.29,20-4.03,20.07-6.53,25.61-10.42,17.25,47.42,15.42,40.44,16,56,23.56,17.87,10.22v90.93h-207.75l-5.33-75.48,27.56-10.22,36.89,33.33,29.33,18.22,15.11-5.33-18.67-19.56-35.56-18.67-26.22-15.11,65,33.11,14,16.44s-6.89-20.22-8-20.67-32-58.89-32-58.89l-24-22-24.67,22,8.22,28.89-1.11,6.44-28.22,11.78-75.56-41.78-37.78-38.67-13.78-23.11-2.67-15.56-13.06-3.39-23.56,33.56-20.22,16.44.67,23.56,55.56,46.22s72.44,44.89,74.22,46.22,44.44,19.56,44.44,19.56l5.78-1.33.89-61.33,2.83.61,5.22,72.22-28.67,1s-85-42.67-86.33-44-66.28-62.33-66.28-62.33l-.83-9.33-8.33-7.83-.62.86,8.5,7.25.82,9.26,66.55,62.67,85.21,43.51,1.82,1.43H48.85"/>
</svg>