<?xml version="1.0" encoding="UTF-8"?>
<svg id="Layer_1" xmlns="http://www.w3.org/2000/svg" version="1.1" viewBox="0 0 595.28 841.89">
  <!-- Generator: Adobe Illustrator 29.6.1, SVG Export Plug-In . SVG Version: 2.1.1 Build 9)  -->
  <defs>
    <style>
      .st0 {
        fill: none;
        stroke: #231f20;
        stroke-miterlimit: 10;
      }
    </style>
  </defs>
  <polyline class="st0" points="309.39 742.24 199.61 686.69 234.28 668.46 254.5 677.35 271.53 668.46 271.53 647.52 162.19 593.3 162.19 558.19 143.92 549.19 143.92 522.85 181.29 541.89 181.29 566.12 163.4 558.78 163.29 559.89 181.51 567.23 199.07 559.34 199.07 532.89 182.4 541.56 181.96 540.12 217.07 522.85 217.07 501.12 181.62 518.45 181.51 539.23 180.51 539.45 180.51 518.01 108.07 482.45 108.07 504.23 143.18 521.78 143.18 522.78 107.18 504.56 107.96 460.28 180.07 496.28 180.07 516.95 181.18 516.84 181.18 496.06 198.4 487.84 180.18 478.51 163.62 487.28 126.9 469.01 143.78 460.28 126.86 451.05 109.4 459.88 107.94 459.17 144.36 441.84 216.28 477.76 199.11 487.17 199.61 487.67 217.03 478.67 216.61 499.92 217.36 499.59 217.32 456.23 198.82 446.89 198.98 468.14 161.9 449.56 162.15 428.48 144.4 420.14 144.4 441.16 143.87 441.44 143.87 397.1 216.54 433.77 216.54 455.38 217.21 455.71 217.21 433.82 268.26 409.07 261.48 404.74 261.48 400.74 205.93 373.19 202.15 374.96 196.6 372.63 145.82 397.3 144.6 396.41 195.82 372.63 162.23 357.46 162.26 315.49 200.73 334.45 201.95 374.01 206.84 372.89 266.51 330.89 266.51 320.45 239.95 307.67 201.95 335.01 201.84 334.01 239.43 307.07 210.87 292.83 210.87 281.22 163.37 314.53 162.12 314.19 211.28 280.28 211.48 225.97 224.09 232.39 252.14 246.47 252.03 262.8 278.92 276.03 278.48 259.69 306.59 273.91 306.26 289.36 279.27 276.58 279.35 293.4 292.8 300.4 292.91 316.36 238.24 290.28 238.08 272.53 251.99 279.36 251.99 295.86 278.91 309.11 278.99 292.86 251.91 278.53 251.99 263.36 223.91 249.28 223.91 230.96 211.05 224.68 211.1 158.23 320.1 103.9 429.44 158.23 320.1 213.07 212.1 158.57 211.69 159.19 319.99 213.6 319.78 347.04 267.28 320.54 267.12 331.04 265.12 332.79 265.03 358.93 257.26 362.48 257.48 363.6 302.59 339.04 320.59 347.93 427.62 293.01 429.44 159.12 430.23 158.62 428.92 293.18 393.92 311.29 408.42 319.15 290.76 380.6 257.63 364.04 260.3 392.32 253.3 395.73 261.13 399.82 260.55 393.07 261.13 393.07 262.05 404.15 294.13 423.73 290.18 381.15 291.21 381.15 295.05 424.07 372.01 383.61 368.59 338.69 354.01 331.36 354.84 330.94 369.51 338.36 372.76 383.36 411.17 362.86 407.92 320.28 408.92 319.61 412.09 362.86 375.01 382.89 375.34 413.41 337.06 432.22 336.98 433.14 375.31 413.97 375.31 434.64 360.09 442.43 354.34 425.18 300.42 486.26 303.03 505.71 361.03 448.82 360.14 443.04 360.73 443.04 361.64 448.87 299.84 508.62 308.39 514.29 416.84 459.96 400.06 450.07 416.17 441.62 375.85 420.53 375.77 419.73 417.14 441.15 417.05 575.3 308.83 628.86 308.41 514.97 299.46 508.58 299.46 534.14 291.63 542.47 289.3 498.72 299.88 486.72 267.66 478.29 272.77 475.62 272.77 455.07 302.87 420.94 307.37 418.96 336.03 433.35 335.92 431.96 307.7 418.29 302.26 420.94 279.26 447.11 272.46 448.07 272.8 411.66 271.99 411.46 272.21 475.36 247.19 489.8 288.83 498.72 288.83 499.55 247.27 490.28 249.58 533.16 291.02 542.5 289.41 594.83 308.21 603.91 416.49 552.91 416.41 554.16 307.99 604.78 288.71 595 290.35 542.78 272.1 538.69 253.91 535.08 254.02 549.19 217.91 567.53 217.46 523.41 216.69 524.08 217.13 567.19 199.69 558.75 199.58 559.86 217.8 568.64 254.46 549.69 254.55 535.86 272.05 539.36 272.19 646.66 307.88 629.11 307.88 630.28 290.38 638.78 289.96 677.25 272.05 667.75 272.21 668.75 289.96 678.16 272.3 686.5 285.83 693.67 254.6 713.71 255.15 714.04 286.37 693.96 307.96 705.41 326.13 696 325.96 621 345.38 611.58 345.13 704.91 326.55 695.08 326.71 695.83 345.13 705.91 326.38 713.91 344.58 723.11 309.39 742.24"/>
</svg>