<?xml version="1.0" encoding="UTF-8"?>
<svg id="Layer_1" xmlns="http://www.w3.org/2000/svg" version="1.1" viewBox="0 0 595.28 841.89">
  <!-- Generator: Adobe Illustrator 29.6.1, SVG Export Plug-In . SVG Version: 2.1.1 Build 9)  -->
  <defs>
    <style>
      .st0 {
        fill: #231f20;
      }
      .st1 {
        fill: none;
      }
    </style>
  </defs>
  <path class="st0" d="M194.47,609.16l8.24-22.28-15.98-120.88-12.01-36.99v-.09c1.09-33.09,3.82-114.12,5.23-151.45l.06-1.7,12.33,20.87,36.28,13.27,18.88,3.86v-50.94l-1.25-12.06-7.95,4.77,1.29,14.2,6.47,7.58-.69,18.33-15.66,4.61-26.41-14.99-22.62-9.85-10.97-43.22,4.96-33.84,27.33-1.37,11.17,13.86,14.46,4.38c1.79.11,10.39.16,11.43-.56v-.02s.06-.09.06-.09c.25-.88-1.09-10.2-1.37-11.87l-21.52-14.05-12.36-2.56-1.74,5.23-29.45,2.3,7.03-31.05v-20.5l-34.75-76.93,7.82-9.87,84.93,63.53,40.5.66,52.63-2.67,24.51-4.64,18.59-11.29,58.29-42.88,7.88,7.07-12.77,39.06-18.04,33.42-9.28,11.94-.67,19.33-9.29,11.94,4.08,16.99-50.63,4.73h-.06s-23.86-3.32-23.86-3.32l-15.61,7.15-1.27,12.68,8.9,3.81h11.73l17.32-12.65,54.91-4.67s.06,0,.09-.01l.47-.07.2,1.02h-.06c.03.36.09.9.15,1.58,2.6,26.44,1.95,26.8,1.42,27.09-.09.05-.2.08-.3.07-.64.97-3.3,7.57-13.84,48.79-.14.57-.25.97-.33,1.25l-.04.21h-.02c-.03.09-.06.16-.09.22h0s0,0,0,0c-.05.1-.1.15-.16.18l-17.94,20.6-26.24,7.4-2.17-.24-51.34-5.78-30.36-14.17v-11.92l23.69-15.79-7.41-6.79-14.76-1.28-1.86,5.99-.88,51.98,14.99,3.86,18.67-7.1.13.02,48.36,7.1,29.57-6.18,19.82-17.05,1.78,82.3,17.58-13.26,8.07-2.85,2.84,11.36-8.15,19.41-11.66,12.97-8.53,5.55,8.76,20,2.01,27.46-22.8,47.61-33.71,16.12h-14.02l-41.02,86-47.3-4.67-44.75,4.72ZM239.91,603.5l46,4.54,40.98-85.94h14.54l33.07-15.88,22.53-47.05-1.98-27.12-9.03-20.53,9.19-5.97,11.46-12.78,7.9-18.88-2.49-9.97-6.96,2.46-18.94,14.32-1.78-82.14-18.41,15.84-29.99,6.27-6.71-.98-41.7-6.12-18.72,7.12-16.06-4.14.92-52.98,2.12-6.83,15.9,1.38,8.59,7.88-24.31,16.21v10.75l29.64,13.83,53.16,5.98,25.76-7.27,17.83-20.47c.05-.2.17-.67.35-1.36,12.53-49,13.93-49.4,14.53-49.57,0,0,0,0,.01,0,.21-1.29.01-7.07-1.85-26.02-.07-.71-.12-1.22-.15-1.59l-54.26,4.61-17.35,12.68-12.36-.04-9.67-4.14,1.4-13.98,16.39-7.51,24.09,3.35,49.37-4.61-3.92-16.34,9.38-12.06.67-19.33,9.43-12.13,17.95-33.26,12.53-38.36-6.79-6.09-57.67,42.43-18.87,11.42-24.67,4.67-52.73,2.67-40.86-.67-.13-.1-84.28-63.04-6.84,8.63,34.59,76.57v20.88s-6.75,29.78-6.75,29.78l27.44-2.14,1.81-5.44,13.5,2.83,21.95,14.34.04.21c.02.11,1.77,10.75,1.34,12.61-.28,1.97-12.41,1.33-12.53,1.32l-.11-.02-14.81-4.49-11.05-13.7-26,1.3-4.81,32.83,10.8,42.56,22.22,9.68,26.08,14.81,14.56-4.28.65-17.22-6.42-7.53-1.38-15.14,9.83-5.9,1.41,13.67v52.22s-20.15-4.12-20.15-4.12l-36.68-13.41-10.78-18.24c-1.42,38-4.08,117-5.16,149.65l11.97,36.92,16.04,121.21-7.76,21,42.8-4.51,11-89.98,25.22-4.2-35.08,94.2ZM250.67,514.37l-10.44,85.42,33.22-89.22-22.78,3.8ZM397.24,235s.05.04.08.05c-.03-.02-.05-.03-.08-.05ZM395.31,206.03h-.02s.02,0,.02,0Z"/>
  <path class="st1" d="M-16.25,362.23c8.57-1.07,17.02-3.19,25.09-6.28"/>
</svg>