<?xml version="1.0" encoding="UTF-8"?>
<svg id="Layer_1" xmlns="http://www.w3.org/2000/svg" version="1.1" viewBox="0 0 595.28 841.89">
  <!-- Generator: Adobe Illustrator 29.6.1, SVG Export Plug-In . SVG Version: 2.1.1 Build 9)  -->
  <defs>
    <style>
      .st0 {
        fill: none;
        stroke: #231f20;
        stroke-miterlimit: 10;
      }
    </style>
  </defs>
  <polygon class="st0" points="55.04 332.15 78.04 332.15 75.37 346.49 83.7 346.49 80.37 358.49 92.37 358.49 92.37 353.49 79.2 332.88 80.7 331.76 93.37 349.21 93.37 343.26 100.73 343.04 102.95 332.82 128.29 332.82 130.23 336.15 132.68 331.76 155.79 332.99 158.23 335.65 158.23 332.99 180.9 332.76 179.57 346.99 185.12 346.99 184.01 359.65 191.79 359.65 191.79 352.99 182.01 331.76 184.01 331.76 190.23 345.71 191.79 332.99 217.34 333.21 218.9 336.54 220.9 332.76 269.57 332.76 272.45 337.21 272.45 332.76 325.79 332.99 326.43 334.28 327.57 336.54 329.12 331.76 380.79 332.76 382.95 336.93 383.79 331.76 435.95 331.76 436.95 335.1 438.29 330.93 490.34 330.93 492.01 335.26 493.18 330.93 545.34 330.93 550.34 348.26 533.51 347.1 535.84 357.76 543.84 349.43 548.68 349.93 539.51 359.65 550.34 397.6 530.34 418.93 506.18 418.93 496.18 373.6 498.01 372.1 507.84 415.6 525.51 396.26 511.84 346.76 497.18 347.1 494.34 335.6 492.18 339.26 488.01 335.1 440.68 335.43 451.84 396.1 473.68 396.76 467.18 370.6 495.01 370.76 493.01 357.76 465.18 358.43 463.01 346.76 488.34 345.76 487.01 335.93 490.68 340.26 496.84 371.1 484.18 393.93 476.18 394.43 476.73 398.38 462.9 418.93 437.4 418.93 450.9 398.04 445.07 397.04 432.4 334.54 385.57 335.71 387.07 344.04 406.23 344.38 406.4 351.38 415.07 351.54 414.57 345.38 423.9 345.54 425.07 353.71 416.9 353.21 417.07 356.04 421.57 356.04 422.9 367.71 418.23 368.04 417.9 364.54 409.73 363.88 410.4 368.38 404.73 367.71 403.23 355.38 407.4 355.88 407.73 353.38 398.9 353.21 398.73 345.21 387.23 345.04 392.9 397.88 414.23 396.71 411.9 375.86 420.23 376.54 423.23 396.38 442.73 397.21 431.57 418.93 410.23 418.93 422.57 397.71 413.57 398.21 401.57 418.93 382.57 418.93 391.57 398.21 384.57 397.88 382.07 364.54 374.07 364.54 373.57 358.71 380.73 358.21 378.9 334.21 330.4 335.54 330.57 346.38 359.4 346.04 360.07 359.38 352.4 359.04 351.4 347.38 330.57 348.38 332.57 396.71 353.9 396.71 353.4 370.71 361.57 370.71 363.23 396.88 382.73 397.54 376.4 418.93 355.4 418.93 361.57 396.21 355.23 396.21 349.73 418.93 328.4 418.93 331.57 397.71 326.73 397.71 325.57 384.54 296.4 384.38 297.64 345.38 324.57 345.71 325.4 370.71 300.73 371.54 300.57 381.04 326.57 380.88 324.9 335.54 276.73 336.38 274.4 397.88 325.07 397.88 322.9 418.93 274.57 418.93 274.23 399.54 266.57 397.71 266.73 384.04 237.9 383.88 238.23 371.38 267.07 370.88 268.39 357.97 239.9 358.04 240.4 347.21 268.9 346.54 269.23 335.71 222.07 336.38 215.84 397.07 265.45 397.34 266.33 418.93 222.23 418.21 218.9 418.21 210.07 395.71 215.57 335.21 194.57 335.38 192.9 361.38 182.9 360.71 183.73 348.04 177.73 347.71 179.07 336.71 160.07 336.04 149.9 396.21 170.57 396.71 175.73 364.21 183.9 364.21 182.07 376.88 188.57 377.38 186.4 396.54 208.57 396.71 217.07 418.93 192.57 418.93 183.57 395.54 184.07 417.71 172.4 395.71 171.23 398.38 182.23 418.21 163.23 418.93 149.73 397.38 142.73 396.88 153.07 335.54 132.73 335.38 120.07 397.88 140.73 397.54 154.23 417.54 131.57 418.93 118.23 397.54 112.07 397.21 126.57 335.71 106.07 335.71 103.73 347.04 97.23 347.38 94.07 360.38 78.07 359.21 81.9 347.71 73.57 347.04 75.9 335.88 59.4 335.88 40.57 397.04 60.9 397.21 67.4 370.54 76.73 371.21 73.4 382.71 87.23 382.71 89.57 370.54 97.23 370.54 91.73 396.21 110.07 396.71 114.07 398.21 126.9 418.93 105.9 418.93 91.9 397.54 91.73 389.71 87.4 383.71 73.4 383.54 88.07 404.21 85.57 404.71 82.4 417.71 62.57 396.88 61.23 398.88 80.23 418.93 58.4 418.93 35.73 397.21 55.04 332.15"/>
</svg>