<?xml version="1.0" encoding="UTF-8"?>
<svg id="Layer_1" xmlns="http://www.w3.org/2000/svg" version="1.1" viewBox="0 0 595.28 841.89">
  <!-- Generator: Adobe Illustrator 29.6.1, SVG Export Plug-In . SVG Version: 2.1.1 Build 9)  -->
  <defs>
    <style>
      .st0 {
        fill: none;
        stroke: #231f20;
        stroke-miterlimit: 10;
      }
    </style>
  </defs>
  <polygon class="st0" points="135.32 403.1 148.21 375.54 160.21 349.76 176.21 330.65 198.88 313.76 225.1 306.65 253.1 306.65 279.32 306.65 301.99 306.65 328.21 306.65 351.77 306.65 377.99 306.65 404.66 306.65 433.99 306.65 459.32 306.65 473.55 306.65 473.55 330.65 473.55 351.99 452.66 351.99 430.43 351.99 407.77 351.99 392.21 351.99 391.77 373.32 389.99 397.32 388.66 425.76 388.21 461.32 386.43 504.87 385.55 532.87 385.55 550.65 393.55 565.76 409.99 576.87 433.1 576.87 450.43 565.76 461.99 543.99 470.88 546.21 467.77 574.21 452.21 603.54 431.32 620.43 403.32 628.87 373.99 625.76 348.21 610.21 332.66 583.1 333.1 553.32 335.77 517.76 338.88 486.21 341.55 451.54 344.21 416.87 347.32 385.32 349.55 353.32 323.77 353.32 301.1 353.32 273.55 353.32 271.77 375.1 269.99 405.32 268.21 432.87 265.55 463.99 261.55 494.21 257.1 524.87 250.88 555.1 243.77 582.65 237.1 606.21 219.77 623.99 195.32 628.87 173.1 617.76 164.21 591.99 175.32 565.76 196.66 537.76 210.88 513.32 223.77 483.99 232.66 450.65 237.1 420.94 241.1 390.21 244.21 352.87 217.99 354.21 189.99 361.76 168.21 377.32 148.21 403.1 135.32 403.1"/>
</svg>