<?xml version="1.0" encoding="UTF-8"?>
<svg id="Layer_1" xmlns="http://www.w3.org/2000/svg" version="1.1" viewBox="0 0 595.28 841.89">
  <!-- Generator: Adobe Illustrator 29.6.1, SVG Export Plug-In . SVG Version: 2.1.1 Build 9)  -->
  <defs>
    <style>
      .st0 {
        fill: none;
        stroke: #231f20;
        stroke-miterlimit: 10;
      }
    </style>
  </defs>
  <polygon class="st0" points="54.38 529.64 110.95 456.58 166.05 385.42 168.07 321.54 169.71 269.42 240.05 291.09 210.02 329.22 167.83 382.81 169.66 384.98 234.67 301.71 293.55 226.31 329.77 338.69 364.33 445.92 353.66 325.37 294.33 226.31 295.17 226.31 354.78 325.21 455.48 353.44 548.23 379.44 444.79 417.13 365.78 445.92 415.34 521.66 480.75 451.66 547.67 380.05 548.23 380.94 481.54 453.02 416.65 523.16 432.76 661.32 400.47 560.86 364.09 447.66 297.64 521.76 233.76 592.99 325.07 624.66 430.81 661.32 430.81 663.71 318.81 623.88 295.03 652.32 233.53 594.05 161.7 522.82 258.85 485.99 362.15 446.82 261.38 415.38 167.03 385.94 163.87 450.66 160.37 522.16 230.59 593.27 147.35 563.21 54.38 529.64"/>
</svg>