<?xml version="1.0" encoding="UTF-8"?>
<svg id="Layer_1" data-name="Layer 1" xmlns="http://www.w3.org/2000/svg" viewBox="0 0 439.77 75.98">
  <defs>
    <style>
      .cls-1 {
        fill: none;
        stroke: #231f20;
        stroke-miterlimit: 10;
      }
    </style>
  </defs>
  <path class="cls-1" d="M54.76,60.26l2.07-4.14.75-5.13-.56-5.59-2.26-4.71-3.28-3.96-4.44-3-4.99-1.69-4.33-.56-4.19-.33-4.66-.24-4-.24-3.48-.89-2.21-2.26.33-3.06,3.62-3.01,3.76-1.88,4.24-1.13,3.71-.31,4.66.5,4.42.85,4.14.28,3.32-1.84,1.58-3.14-.66-3.01-3.48-2.16-3.58-1.18-5.83-1.65h-6.4l-6.87.94-6.96,3.01-6.64,5.18-4.24,6.35-1.82,6.58,1.82,6.55,6,3.67s9.67,2.26,10.1,2.54,9.88.42,9.88.42l6.1,1.29,3.78,3.51.14,5.08-3.81,4.52-6.21,2.68-6.92,1.84h-6.35l-6.92-2.26-2.96-5.08-4.52-1.91-4.51,1.78-1.58,5.63,2.14,5.79,4.66,3.81,6.35,2.68,9.27.76,9.08-.76,8.33-1.86,7.76-3.22,5.65-4.8,9.6,1.27v-4.94l-1.27-7.34-.4-8.99.68-9.78,1.98-6.35,4.44-1.39,4.25,1.56,1.76,3.95-1.13,8.73v7.76l.56,8.19.96,5.27s2.82.88,4.04.98,10.48-1.38,10.48-1.38v-23.09l.9-8.75,3.11-2.82,5.08.28,3.53,2.96v8.19l-.88,8.88.04,9.9.05,7.46.3,5.37-1.74,3.97-4.28,1.57-3.79-.87-1.41-2.35-4.52,1.51-6.86.51-6.12-.65-4.15-1.91-5.17-6.95-.28,1.02,5.8,6.52,4.66,1.74,6.07.52,6.78-.66,3.67-1.22,2.02,2.7,4.24.35,3.95-1.88,1.64-4.61,6.72-.49.26-7.15V10.38l1.38-5.5,3.21-2.74h3.95l2.54,3.11-.36,3.35-.16,7.24v11s0,12.63,0,12.63l.04,6.91-.05,6.12v5.24s4.8,1.73,4.8,1.73l6.96.75,5.08-1.79,4.05-4.61,1.69-5.65-.56-5.46-2.29-4.61-4.48-3.39-4.8-.47-3.86,1.37-6.41,3.7-.06-12.56,3.93-1.81,5.65-1.73,6.71.42,5.51,1.91,4.45,3.18,4.16,5.22,2.07,4.89,1.32,5.74v5.46l-1.32,6.12-3.2,5.18-4.42,4.71-5.36,3.49-5.27,1.41-4.22.4-5.29-.4-6.14-1.71-2.14,1.43-3.86-.38-3.01-2.59-.33-1.55-.12.12.48,1.59,3.09,2.55,3.97.41,2.01-1.39,6.42,1.69,5.25.35,4.31-.47,5.45-1.46,5.29-3.55,14.45-.56,2.64,3.11,5.74,2.54,6.68,1.04,7.34-.66,7.94-2.38,5.15-4.58,1.32-5.08-.66-6.87-3.86-4.24-4.89-2.54-5.55-2.82-4.89-2.54-3.71-3.33,1.16-1.66,4.89-1.13,4.3-.05,3.52.3.93,2.2,3.11.99,3.48-.52,1.41-3.58.19-5.55-2.68-3.25-5.51-.99h-5.65l-5.55.38-5.97,1.25-4.75,2.23-2.92,3.01-1.6,3.86.19,4.89,2.26,4.89,3.73,3.11,5.12,2.91,5.36,2.35,5.27,2.64,1.65,2.59-2.22,2.69-4.89.94-6.4-.85-5.46-1.6-4.61.28-1.74,2.45.09,3.11,3.06,4.19,5.74,2.35,6.92.8,7.44-.66,8.28-2.71,4.94-4.87,9.25-.92-2.75-5.01-.78-9.18,1.62-6.21,2.92-5.93,4.71-6.87,6.87-4.99,5.86-1.09,6.28,1.09,5.46,1.88,5.27,3.58.56,4.14-2.07,3.15-4.52,1.08-4.52-3.01-6.47-1.17-4.26,2.02-2.92,4.47-2.64,5.13-1.06,5.7,1.06,4.75,4.52,3.67,6.68,1.22,6.22-2.29,5.29-2.19,3.97,1.68,1.65,3.82-2.92,4.44-4.38,2.26-5.78,2.35-6.31.56-8-1.32-6.43-4.01-2.99-3.99-.33.4,3.32,3.84,6.68,3.98,8.05,1.31,6.56-.71,6-2.47,13.18-2.48v-24.37l.09-7.75.09-3.97.81-3.76,3.39-2.05,4.24.28,1.76,1.76,1.01,3.03,3.83-2.46,5.51-2.26,6.07-.85,5.22.71,3.25,2.82,1.27,5.08.29,5.59-1.42,5.13-2.96,1.27-3.95-.14-2.68-2.26-.71-4.24.12-3.12-4.5,1-3.11,1.5-3.81,3.45-2.42,3.98.16,5.9v8.05l-.12,7.66-.73,2.79-2.4,2.11-2.8.77-4.12-1.72-.96-4.16-.61.61,1.74,4.14,4.56,1.32,3.2-1.36,1.93-2.12.56-2.73,33.27.19v-6.47l-.39-10.73.43-9.58.62-6.09v-5.08l2.4-3.81,3.34-.32v-6.74l-3.35-1.72-2.02-4.51,2.02-4.51,4.77-1.85,4.75,1.85,2,4.51-2,4.51-4.75,1.85-.95-.04v6.64l3.78,1.64,1.68,4.1-.43,9.58-.43,9.58.23,10.51.08,5.22-1.68,4.1-4.25,1.61-4.25-1.61-1.14-2.66-.46.46,1.66,2.53,4.6,1.57,4.14-1.92,1.6-4.24,10.18.46.13-3.16V9.09l1.62-5.36,4.78-1.9,3.69,1.9.76,4.87v7.42l-.15,10.82v12.63l.15,8.31-.15,9.95,4.62,1.62,5.48.91,6.52-1.62,4.52-5.36,1.47-5.95-1.19-6.05-3.39-5.51-4.52-1.69-5.65.71-4.94,2.73-2.73,1.79.02-12.64,5.89-2.48,5.63-.88,4.79.32,6.08,2.12,4.65,3.53,3.25,4.66,2.12,4.38,1.13,5.08v5.93l-1.41,6.49-2.68,5.08-4.38,4.94-4.52,2.82-5.36,1.98-5.29.66-5.86-.52-5.57-1.58-2.62,1.16h-3.53l-2.75-2.05-.47-2.68-.4-.07.75,2.96,3.04,2.19,3.88-.21,2.19-1.11,5.69,1.6,5.93.47,5.36-.78,5.55-1.99,4.48-2.89,4.41-5.15,10.88-.4-1.65-5.46v-7.91l1.65-7.2,4.17-6.76,4.91-4.82,7.06-2.96,9.6-.42,7.99,2.28,3.58,2.38,1.55,1.69-10.03,5.55-3.38-1.32-4.14-.32-4.61.74-2.22,1.92-3,3.72-1.55,4.27,5.08-2.29,4.59-1.88,6.43-2.92,3.04-1.76,9.81-5.31.82,2.49.42,3.53-.8,2.92-1.69,2.54-3.62,2.96-4,1.98-4.73,2.25-3.6,1.66-2.92,1.27-4.14,1.79-3.82,1.69,3.05,2.59,4.38,1.69,7.69.28,5.22-1.62,4.09-2.4,3.95-.56,2.61,1.69.63,2.66-1.47,4.11-5.7,3.88-7.94,2.24-4.82.34-7.61-.72-6.4-2.35-4.33-3.48-3.86-4.71-.45.24,4.19,4.94,4.8,3.44,6.96,2.26,7.81.49,4.92-.45,7.44-2.21,5.58-4.21,7.55.15.88-3.77,2.54-1.13,2.34-.34v-3.14l-2.77-1.24-1.57-3.78-.21-10.01.05-12.49.09-11.76.07-11.32,1.59-3.8,3.95-1.53,3.95,1.53,1.59,3.8v5.2s-.01,7.81-.01,7.81v6.4s.01,6.78.01,6.78v7.06s-.01,7.44-.01,7.44v4.9s-1.55,3.78-1.55,3.78l-3.97,1.5-1-.18-.05,3.08,2.19.48,2.43,2.25,1.96,3.12v3.11l-1.68,2.2-3.97,1.55-3.67-1.21-2.61-3.53-.64-2.49-.61.16,1.2,2.67,2.75,3.64,4,1.02,14.79.24v2.64H.53v-2.64h23.88l9.65-1.45,7.48-1.89,7.41-3.33,4.02-3.32,1.79-2.59Z"/>
</svg>