<?xml version="1.0" encoding="UTF-8"?>
<svg id="Layer_1" data-name="Layer 1" xmlns="http://www.w3.org/2000/svg" viewBox="0 0 361 361">
  <defs>
    <style>
      .cls-1 {
        fill: none;
        stroke: #231f20;
        stroke-miterlimit: 10;
      }
    </style>
  </defs>
  <polygon class="cls-1" points=".5 291.56 44.5 291.56 44.5 269.34 67.17 269.34 67.17 247.56 89.39 247.56 89.39 225.78 67.17 225.78 67.17 180.5 44.94 180.5 44.94 136 88.5 136 88.5 158.67 112.94 158.67 112.94 180.5 133.83 180.5 133.83 156.45 156.94 156.45 156.94 136 179.17 136 179.17 112 204.05 112 204.05 90.23 224.94 90.23 224.94 67.11 246.72 67.11 246.72 44.89 270.28 44.89 270.28 21.34 292.05 21.34 292.05 .5 360.5 .5 360.5 67.11 339.61 67.11 339.61 90.23 315.61 90.23 315.61 110.67 295.61 110.67 295.61 136.89 271.61 136.89 271.61 158.23 249.39 158.23 249.39 184 226.28 184 226.28 202.23 207.17 202.23 207.17 225.78 183.61 225.78 183.61 247.56 201.83 247.56 201.83 272 223.61 272 223.61 315.11 180.5 315.11 180.5 294.67 134.72 294.67 134.72 269.78 115.17 269.78 115.17 291.11 92.05 291.11 92.05 315.11 68.05 315.11 68.05 360.5 .5 360.5 .5 291.56"/>
</svg>